<?xml version="1.0" standalone="no"?>
<!DOCTYPE svg PUBLIC "-//W3C//DTD SVG 20010904//EN"
 "http://www.w3.org/TR/2001/REC-SVG-20010904/DTD/svg10.dtd">
<svg version="1.0" xmlns="http://www.w3.org/2000/svg"
 width="500.000000pt" height="500.000000pt" viewBox="0 0 500.000000 500.000000"
 preserveAspectRatio="xMidYMid meet">
<metadata>
Created by potrace 1.15, written by Peter Selinger 2001-2017
</metadata>
<g transform="translate(0.000000,500.000000) scale(0.100000,-0.100000)"
fill="#000000" stroke="none">
<path d="M2562 4317 c-14 -6 -30 -31 -44 -69 l-21 -60 -23 39 c-13 21 -27 44
-32 52 -16 27 -42 5 -42 -36 l0 -38 -31 33 c-42 45 -57 31 -41 -39 16 -69 16
-69 -19 -69 -62 0 -113 -24 -169 -78 -44 -43 -58 -51 -70 -43 -41 30 -119 61
-155 61 -92 0 -144 -72 -145 -197 0 -171 55 -285 183 -378 21 -15 33 -39 51
-103 29 -103 81 -181 159 -238 74 -55 138 -75 260 -83 l100 -6 54 -135 c46
-113 56 -148 60 -216 3 -45 3 -98 -1 -118 -6 -33 -10 -36 -40 -36 -62 0 -118
-74 -66 -87 15 -4 18 -11 13 -36 -6 -29 -5 -30 21 -23 17 4 34 2 43 -5 11 -10
19 -8 39 13 43 43 65 128 71 274 l6 132 29 -56 c29 -53 30 -60 23 -136 -7 -79
-20 -118 -56 -165 -32 -40 -18 -89 17 -60 11 9 18 8 34 -6 20 -18 40 -13 40
10 0 7 10 15 21 17 20 3 21 10 24 118 3 141 33 250 78 284 53 40 167 16 167
-35 0 -20 -1 -20 -31 5 -52 44 -113 29 -139 -33 -16 -40 -8 -81 35 -165 21
-41 33 -76 30 -87 -3 -10 -26 -38 -50 -63 -46 -47 -66 -100 -45 -119 9 -9 16
-6 32 13 18 22 21 23 29 7 14 -25 38 -21 49 8 11 29 10 29 44 11 l26 -13 -58
-55 c-69 -66 -124 -99 -217 -130 -62 -20 -88 -23 -230 -22 -141 0 -172 4 -260
27 -191 52 -408 178 -496 289 -81 103 -112 195 -111 332 1 103 29 185 84 240
36 36 41 38 87 34 83 -8 143 -69 143 -145 0 -18 -7 -45 -16 -58 -14 -21 -24
-25 -66 -25 -46 0 -80 -17 -80 -40 0 -4 14 -20 32 -35 83 -70 208 27 208 161
-1 92 -54 175 -143 220 -111 57 -198 37 -261 -59 -162 -246 -79 -620 182 -821
141 -107 299 -179 484 -217 86 -17 126 -20 238 -16 163 6 231 23 368 88 140
67 231 155 290 279 50 105 66 178 64 295 -2 208 -85 352 -306 529 -47 39 -85
72 -83 75 27 47 38 90 33 126 -18 119 -22 106 39 149 109 78 177 194 177 306
1 123 -64 200 -169 200 -61 0 -84 -9 -130 -52 l-31 -30 -29 26 c-39 37 -155
94 -208 101 -24 4 -50 13 -56 21 -18 22 -5 101 22 130 27 28 16 47 -19 31z
m493 -293 c61 -29 86 -117 61 -215 -19 -74 -44 -112 -104 -163 -47 -38 -76
-45 -107 -22 -18 13 -17 14 13 30 66 34 73 50 66 148 -6 82 -6 88 12 88 11 0
28 -9 37 -21 20 -23 35 -21 51 4 14 22 -26 64 -71 73 -26 5 -37 1 -59 -21 -25
-25 -26 -30 -20 -94 7 -72 -5 -126 -27 -118 -6 2 -11 13 -10 23 2 10 -2 51 -8
91 -7 39 -9 83 -5 97 9 34 54 86 91 102 39 17 41 17 80 -2z m-1057 -33 c41
-22 53 -54 59 -163 4 -71 2 -111 -6 -126 -22 -41 -30 -22 -28 68 2 83 0 91
-23 114 -31 31 -78 42 -103 24 -26 -19 -12 -48 23 -48 42 0 50 -19 49 -106 -1
-54 3 -91 15 -118 20 -48 21 -86 2 -86 -20 0 -86 77 -121 141 -27 49 -30 62
-30 149 0 104 14 146 53 166 25 12 71 6 110 -15z m742 -16 c40 -36 50 -78 50
-205 0 -71 5 -130 11 -143 7 -12 31 -43 55 -68 81 -88 79 -162 -5 -253 -232
-249 -647 -233 -768 30 -24 54 -45 148 -36 170 2 7 27 31 54 54 56 47 59 65
34 160 -29 109 -8 186 66 239 54 40 109 41 179 6 65 -33 113 -32 197 5 75 33
130 35 163 5z"/>
<path d="M2214 3409 c-18 -30 69 -101 155 -125 104 -31 274 5 352 75 67 59 28
87 -47 32 -51 -37 -132 -61 -209 -61 -78 0 -120 14 -168 57 -37 33 -70 42 -83
22z"/>
<path d="M1765 1708 c-33 -30 -38 -41 -39 -80 -2 -82 43 -128 125 -128 33 0
47 6 75 34 30 30 34 40 34 85 0 72 -36 112 -107 118 -47 5 -54 3 -88 -29z
m142 -20 c69 -65 6 -183 -87 -163 -36 8 -70 55 -70 96 0 30 33 77 64 89 28 12
66 3 93 -22z"/>
<path d="M1420 1615 l0 -115 84 0 c96 0 126 16 146 76 10 30 9 43 -5 80 -22
59 -53 74 -150 74 l-75 0 0 -115z"/>
<path d="M2030 1655 c0 -47 6 -87 15 -104 37 -72 183 -72 220 0 9 17 15 57 15
104 l0 75 -35 0 -35 0 0 -57 c0 -69 -17 -107 -48 -111 -37 -6 -49 14 -57 93
l-7 75 -34 0 -34 0 0 -75z"/>
<path d="M2372 1618 l3 -113 38 -3 37 -3 0 58 0 57 58 -57 c46 -46 64 -57 90
-57 l32 0 0 115 0 115 -40 0 -40 0 0 -57 -1 -58 -53 58 c-46 49 -58 57 -90 57
l-37 0 3 -112z"/>
<path d="M2730 1615 l0 -115 40 0 40 0 0 47 0 47 43 -48 c39 -44 45 -47 84
-44 l42 3 -49 59 -49 59 40 48 c21 26 39 50 39 53 0 3 -17 6 -38 6 -32 0 -42
-6 -72 -45 -19 -24 -37 -44 -40 -45 -3 0 -4 20 -2 45 l4 45 -41 0 -41 0 0
-115z"/>
<path d="M3060 1615 l0 -115 85 0 c84 0 85 0 85 25 0 23 -3 25 -51 25 -46 0
-50 2 -47 22 3 18 10 22 48 22 38 1 45 4 48 23 3 20 -2 22 -45 25 -36 2 -49 7
-51 21 -3 14 4 17 47 17 48 0 51 2 51 25 0 25 -1 25 -85 25 l-85 0 0 -115z"/>
<path d="M3330 1615 l0 -115 35 0 35 0 0 63 1 62 59 -62 c47 -50 66 -63 90
-63 l30 0 0 115 0 115 -35 0 -35 0 0 -57 0 -57 -58 57 c-46 46 -64 57 -90 57
l-32 0 0 -115z"/>
<path d="M1554 1367 c-2 -7 -3 -60 -2 -118 l3 -104 35 0 35 0 0 58 c0 31 2 57
4 57 3 0 17 -15 33 -32 l28 -33 30 35 29 35 1 -63 0 -63 38 3 37 3 0 115 0
115 -30 3 c-24 3 -36 -4 -67 -40 l-38 -43 -38 43 c-39 43 -87 58 -98 29z"/>
<path d="M1974 1365 c-82 -42 -85 -168 -4 -210 48 -25 123 -20 159 11 59 49
58 143 -1 187 -35 26 -114 32 -154 12z"/>
<path d="M2260 1260 l0 -120 35 0 35 0 0 63 1 62 59 -62 c47 -50 66 -63 90
-63 l30 0 0 120 0 120 -35 0 -35 0 0 -60 c0 -33 -2 -60 -3 -60 -2 0 -31 27
-64 60 -43 43 -67 60 -86 60 l-27 0 0 -120z"/>
<path d="M2610 1260 l0 -120 35 0 35 0 0 53 0 52 46 -52 c41 -47 50 -53 85
-53 21 0 39 3 39 7 0 4 -17 27 -38 52 -56 67 -55 64 -12 119 22 27 40 53 40
56 0 3 -15 6 -34 6 -29 0 -42 -8 -80 -52 l-46 -53 0 53 0 52 -35 0 -35 0 0
-120z"/>
<path d="M2934 1367 c-2 -7 -3 -60 -2 -118 l3 -104 88 -3 87 -3 0 26 c0 23 -3
25 -50 25 -47 0 -50 2 -50 25 0 23 3 25 51 25 47 0 50 2 47 23 -3 19 -10 22
-50 25 -40 3 -48 6 -48 23 0 16 7 19 51 19 47 0 50 2 47 23 -3 20 -9 22 -86
25 -62 2 -84 -1 -88 -11z"/>
<path d="M3190 1373 c0 -5 21 -35 45 -67 40 -53 45 -65 45 -113 l0 -54 37 3
c38 3 38 3 35 45 -4 46 5 67 55 132 18 24 33 48 33 52 0 5 -16 9 -34 9 -28 0
-40 -7 -63 -36 l-27 -36 -29 36 c-23 29 -36 36 -63 36 -19 0 -34 -3 -34 -7z"/>
<path d="M2702 858 c3 -108 5 -123 21 -126 14 -3 17 5 17 53 0 75 24 71 28 -4
3 -43 6 -52 20 -49 15 3 17 18 17 123 0 105 -2 120 -17 123 -14 3 -17 -6 -20
-50 -4 -66 -22 -65 -26 2 -3 42 -6 50 -23 50 -19 0 -19 -6 -17 -122z"/>
<path d="M2932 968 c-16 -16 -16 -210 0 -226 7 -7 24 -12 38 -12 40 0 50 18
50 87 0 61 -1 63 -25 63 -25 0 -25 -1 -19 -55 5 -38 3 -55 -5 -55 -7 0 -11 28
-11 85 0 50 4 85 10 85 6 0 10 -9 10 -20 0 -13 7 -20 20 -20 15 0 20 7 20 28
0 15 -5 33 -12 40 -15 15 -61 15 -76 0z"/>
<path d="M3060 854 c0 -114 2 -125 18 -122 13 2 18 15 20 56 2 28 7 52 12 52
5 0 10 -24 12 -52 2 -41 7 -54 21 -56 15 -3 17 8 17 122 0 119 -1 126 -20 126
-17 0 -20 -7 -20 -50 0 -27 -4 -50 -10 -50 -5 0 -10 23 -10 50 0 43 -3 50 -20
50 -19 0 -20 -7 -20 -126z"/>
</g>
</svg>
